<svg width="427" height="101" viewBox="0 0 427 101" fill="none" xmlns="http://www.w3.org/2000/svg">
<g id="Group 13">
<g id="Rectangle 7" filter="url(#filter0_d)">
<path d="M91.3831 19.3585C91.3831 8.66711 100.05 0 110.742 0H403C414.046 0 423 8.95431 423 20V73C423 84.0457 414.046 93 403 93H111.383C100.337 93 91.3831 84.0457 91.3831 73V57.1575C91.3831 53.6986 88.6894 50.8379 85.2367 50.6301V50.6301C77.1745 50.1448 77.3535 38.305 85.3956 37.5569V37.5569C88.7737 37.2427 91.3831 34.4056 91.3831 31.0129V19.3585Z" fill="#3C3744"/>
</g>
<path id="smokerChat" d="M139.682 44.2841C139.034 39.4602 135.148 36.4773 128.534 36.4773C121.835 36.4773 117.42 39.5795 117.438 44.625C117.42 48.5455 119.892 51.0852 125.006 52.108L129.54 53.0114C131.824 53.4716 132.864 54.3068 132.898 55.6193C132.864 57.1705 131.176 58.2784 128.636 58.2784C126.045 58.2784 124.324 57.1705 123.881 55.0398L116.739 55.4148C117.42 60.4261 121.682 63.5114 128.619 63.5114C135.403 63.5114 140.261 60.0511 140.278 54.8864C140.261 51.1023 137.79 48.8352 132.71 47.7955L127.972 46.8409C125.534 46.3125 124.631 45.4773 124.648 44.2159C124.631 42.6477 126.403 41.625 128.653 41.625C131.176 41.625 132.676 43.0057 133.034 44.6932L139.682 44.2841ZM144.851 63H152.112V47.2841C152.112 44.3864 153.953 42.4602 156.374 42.4602C158.76 42.4602 160.362 44.0966 160.362 46.6705V63H167.402V47.0114C167.402 44.3011 168.953 42.4602 171.595 42.4602C173.913 42.4602 175.652 43.9091 175.652 46.8239V63H182.896V45.392C182.896 39.7159 179.521 36.4773 174.646 36.4773C170.811 36.4773 167.828 38.4375 166.754 41.4375H166.482C165.646 38.4034 162.97 36.4773 159.374 36.4773C155.845 36.4773 153.169 38.3523 152.078 41.4375H151.771V36.8182H144.851V63ZM200.462 63.5114C208.405 63.5114 213.348 58.0739 213.348 50.0114C213.348 41.8977 208.405 36.4773 200.462 36.4773C192.518 36.4773 187.575 41.8977 187.575 50.0114C187.575 58.0739 192.518 63.5114 200.462 63.5114ZM200.496 57.8864C196.831 57.8864 194.956 54.5284 194.956 49.9602C194.956 45.392 196.831 42.017 200.496 42.017C204.092 42.017 205.967 45.392 205.967 49.9602C205.967 54.5284 204.092 57.8864 200.496 57.8864ZM218.07 63H225.331V54.6818L227.291 52.4489L234.433 63H242.939L232.729 48.1534L242.445 36.8182H234.109L225.723 46.7557H225.331V28.0909H218.07V63ZM256.861 63.5114C263.338 63.5114 267.702 60.358 268.724 55.5L262.009 55.0568C261.276 57.0511 259.401 58.0909 256.98 58.0909C253.349 58.0909 251.048 55.6875 251.048 51.7841V51.767H268.878V49.7727C268.878 40.875 263.491 36.4773 256.571 36.4773C248.866 36.4773 243.872 41.9489 243.872 50.0284C243.872 58.3295 248.798 63.5114 256.861 63.5114ZM251.048 47.267C251.202 44.2841 253.469 41.8977 256.69 41.8977C259.844 41.8977 262.026 44.1477 262.043 47.267H251.048ZM273.616 63H280.878V48.1875C280.878 44.9659 283.23 42.75 286.435 42.75C287.44 42.75 288.821 42.9205 289.503 43.142V36.6989C288.855 36.5455 287.952 36.4432 287.219 36.4432C284.287 36.4432 281.884 38.1477 280.929 41.3864H280.656V36.8182H273.616V63ZM324.195 40.3125C323.223 32.25 317.121 27.6136 309.041 27.6136C299.82 27.6136 292.78 34.125 292.78 45.5455C292.78 56.9318 299.7 63.4773 309.041 63.4773C317.99 63.4773 323.393 57.5284 324.195 51.1023L316.729 51.0682C316.03 54.8011 313.098 56.9489 309.161 56.9489C303.859 56.9489 300.263 53.0114 300.263 45.5455C300.263 38.2841 303.808 34.142 309.212 34.142C313.251 34.142 316.166 36.4773 316.729 40.3125H324.195ZM336.612 47.8636C336.629 44.4886 338.692 42.5114 341.658 42.5114C344.607 42.5114 346.345 44.4034 346.328 47.625V63H353.589V46.3295C353.607 40.1932 349.993 36.4773 344.538 36.4773C340.567 36.4773 337.908 38.3523 336.714 41.4375H336.408V28.0909H329.351V63H336.612V47.8636ZM366.77 63.4943C370.639 63.4943 373.145 61.8068 374.423 59.3693H374.628V63H381.514V45.3409C381.514 39.1023 376.23 36.4773 370.401 36.4773C364.128 36.4773 360.003 39.4773 358.997 44.25L365.713 44.7955C366.207 43.0568 367.759 41.7784 370.366 41.7784C372.838 41.7784 374.253 43.0227 374.253 45.1705V45.2727C374.253 46.9602 372.463 47.1818 367.912 47.625C362.73 48.1023 358.077 49.8409 358.077 55.6875C358.077 60.8693 361.776 63.4943 366.77 63.4943ZM368.849 58.483C366.616 58.483 365.014 57.4432 365.014 55.4489C365.014 53.4034 366.702 52.3977 369.259 52.0398C370.844 51.8182 373.435 51.4432 374.304 50.8636V53.642C374.304 56.3864 372.037 58.483 368.849 58.483ZM401.074 36.8182H396.148V30.5455H388.886V36.8182H385.307V42.2727H388.886V55.9091C388.852 61.0398 392.347 63.5795 397.614 63.358C399.489 63.2898 400.818 62.9148 401.551 62.6761L400.409 57.2727C400.051 57.3409 399.284 57.5114 398.602 57.5114C397.153 57.5114 396.148 56.9659 396.148 54.9545V42.2727H401.074V36.8182Z" fill="white"/>
</g>
<defs>
<filter id="filter0_d" x="75.2764" y="0" width="351.724" height="101" filterUnits="userSpaceOnUse" color-interpolation-filters="sRGB">
<feFlood flood-opacity="0" result="BackgroundImageFix"/>
<feColorMatrix in="SourceAlpha" type="matrix" values="0 0 0 0 0 0 0 0 0 0 0 0 0 0 0 0 0 0 127 0"/>
<feOffset dy="4"/>
<feGaussianBlur stdDeviation="2"/>
<feColorMatrix type="matrix" values="0 0 0 0 0.820833 0 0 0 0 0.786632 0 0 0 0 0.786632 0 0 0 0.25 0"/>
<feBlend mode="normal" in2="BackgroundImageFix" result="effect1_dropShadow"/>
<feBlend mode="normal" in="SourceGraphic" in2="effect1_dropShadow" result="shape"/>
</filter>
</defs>
</svg>
