<svg width="477" height="193" viewBox="0 0 477 193" fill="none" xmlns="http://www.w3.org/2000/svg">
<g id="Group 218">
<path id="Rectangle 265" d="M61 75C61 61.7452 71.7452 51 85 51H453C466.255 51 477 61.7452 477 75V169C477 182.255 466.255 193 453 193H85C71.7452 193 61 182.255 61 169V153.471C61 147.749 57.5208 142.603 52.2115 140.47L46.5124 138.181C34.4438 133.334 36.9092 115.567 49.8416 114.189V114.189C56.1867 113.513 61 108.159 61 101.778V75Z" fill="#3C3743"/>
<path id="smokerChat" d="M100.26 140.975C96.1433 140.975 92.3733 139.978 88.95 137.985L89.145 130.055H94.345L95.45 136.49C96.23 136.793 97.01 137.032 97.79 137.205C98.57 137.335 99.415 137.4 100.325 137.4C102.188 137.4 103.618 137.097 104.615 136.49C105.612 135.84 106.11 134.865 106.11 133.565C106.11 132.568 105.742 131.702 105.005 130.965C104.268 130.228 102.817 129.557 100.65 128.95L97.14 127.91C94.6267 127.173 92.6767 125.982 91.29 124.335C89.9467 122.688 89.275 120.652 89.275 118.225C89.275 115.235 90.445 112.722 92.785 110.685C95.125 108.605 98.4833 107.565 102.86 107.565C104.767 107.565 106.522 107.803 108.125 108.28C109.772 108.713 111.44 109.363 113.13 110.23L112.675 117.315H107.475L106.175 111.725C105.265 111.378 104.073 111.205 102.6 111.205C101.127 111.205 99.935 111.508 99.025 112.115C98.1583 112.722 97.725 113.632 97.725 114.845C97.725 115.712 98.0717 116.492 98.765 117.185C99.4583 117.835 100.932 118.507 103.185 119.2L106.37 120.11C109.447 121.02 111.657 122.32 113 124.01C114.343 125.7 115.015 127.758 115.015 130.185C115.015 133.608 113.693 136.273 111.05 138.18C108.45 140.043 104.853 140.975 100.26 140.975ZM118.4 140V136.945L121.91 136.165C121.953 134.605 121.975 132.915 121.975 131.095C121.975 129.275 121.975 127.693 121.975 126.35V122.58C121.975 120.803 121.953 119.438 121.91 118.485C121.91 117.488 121.867 116.34 121.78 115.04L117.815 114.455V111.92L130.62 107.565L131.79 108.28L132.18 112.96C133.697 111.183 135.278 109.84 136.925 108.93C138.615 108.02 140.413 107.565 142.32 107.565C146.783 107.565 149.665 109.493 150.965 113.35C152.742 111.183 154.453 109.688 156.1 108.865C157.79 107.998 159.567 107.565 161.43 107.565C164.723 107.565 167.128 108.518 168.645 110.425C170.162 112.332 170.92 115.213 170.92 119.07V126.35C170.92 127.737 170.92 129.34 170.92 131.16C170.92 132.98 170.942 134.67 170.985 136.23L174.235 136.945V140H157.465V136.945L160.65 136.165C160.693 134.605 160.715 132.937 160.715 131.16C160.715 129.34 160.715 127.737 160.715 126.35V120.045C160.715 117.618 160.433 115.993 159.87 115.17C159.307 114.303 158.353 113.87 157.01 113.87C155.19 113.87 153.37 114.65 151.55 116.21C151.593 116.6 151.615 117.012 151.615 117.445C151.658 117.835 151.68 118.268 151.68 118.745V126.35C151.68 127.78 151.68 129.405 151.68 131.225C151.68 133.002 151.702 134.692 151.745 136.295L154.8 136.945V140H138.03V136.945L141.41 136.165C141.453 134.605 141.475 132.937 141.475 131.16C141.475 129.34 141.475 127.737 141.475 126.35V120.11C141.475 117.813 141.193 116.21 140.63 115.3C140.11 114.347 139.135 113.87 137.705 113.87C136.795 113.87 135.885 114.087 134.975 114.52C134.065 114.953 133.198 115.517 132.375 116.21V126.35C132.375 127.693 132.375 129.297 132.375 131.16C132.375 132.98 132.397 134.692 132.44 136.295L135.495 136.945V140H118.4ZM193.945 140.975C190.565 140.975 187.64 140.282 185.17 138.895C182.7 137.465 180.793 135.493 179.45 132.98C178.106 130.423 177.435 127.477 177.435 124.14C177.435 120.803 178.15 117.9 179.58 115.43C181.053 112.96 183.046 111.032 185.56 109.645C188.073 108.258 190.868 107.565 193.945 107.565C197.021 107.565 199.795 108.237 202.265 109.58C204.778 110.923 206.771 112.852 208.245 115.365C209.718 117.835 210.455 120.76 210.455 124.14C210.455 127.52 209.783 130.467 208.44 132.98C207.096 135.493 205.19 137.465 202.72 138.895C200.25 140.282 197.325 140.975 193.945 140.975ZM193.945 137.595C195.765 137.595 197.13 136.533 198.04 134.41C198.95 132.287 199.405 128.928 199.405 124.335C199.405 119.698 198.95 116.318 198.04 114.195C197.13 112.072 195.765 111.01 193.945 111.01C192.081 111.01 190.695 112.072 189.785 114.195C188.875 116.318 188.42 119.698 188.42 124.335C188.42 128.928 188.875 132.287 189.785 134.41C190.695 136.533 192.081 137.595 193.945 137.595ZM213.802 140V136.945L217.442 136.165C217.486 134.562 217.507 132.85 217.507 131.03C217.507 129.21 217.507 127.65 217.507 126.35V99.115L213.477 98.465V95.735L227.127 92.81L228.167 93.46L227.907 102.56V122.515L238.437 112.245L233.497 111.465V108.605H249.162V111.465L243.312 112.31L237.592 117.705L246.757 135.97L250.917 136.945V140H237.657L230.312 124.465L227.907 126.74C227.907 128.17 227.907 129.752 227.907 131.485C227.951 133.175 227.972 134.757 227.972 136.23L231.482 136.945V140H213.802ZM267.63 110.945C266.417 110.945 265.29 111.703 264.25 113.22C263.254 114.693 262.69 117.423 262.56 121.41H268.085C269.645 121.41 270.685 121.107 271.205 120.5C271.769 119.85 272.05 118.788 272.05 117.315C272.05 115.148 271.617 113.545 270.75 112.505C269.884 111.465 268.844 110.945 267.63 110.945ZM267.76 140.975C264.597 140.975 261.802 140.325 259.375 139.025C256.949 137.682 255.042 135.775 253.655 133.305C252.269 130.792 251.575 127.802 251.575 124.335C251.575 120.695 252.377 117.64 253.98 115.17C255.627 112.657 257.729 110.772 260.285 109.515C262.842 108.215 265.507 107.565 268.28 107.565C271.14 107.565 273.567 108.172 275.56 109.385C277.597 110.598 279.135 112.245 280.175 114.325C281.215 116.362 281.735 118.702 281.735 121.345C281.735 122.602 281.605 123.75 281.345 124.79H262.56C262.777 128.213 263.709 130.748 265.355 132.395C267.045 133.998 269.017 134.8 271.27 134.8C273.047 134.8 274.564 134.475 275.82 133.825C277.077 133.132 278.182 132.287 279.135 131.29L281.41 133.37C280.067 135.927 278.247 137.833 275.95 139.09C273.654 140.347 270.924 140.975 267.76 140.975ZM285.342 140V136.945L288.917 136.23C288.96 134.627 288.982 132.915 288.982 131.095C288.982 129.275 288.982 127.693 288.982 126.35V122.515C288.982 121.302 288.96 120.305 288.917 119.525C288.917 118.745 288.895 118.03 288.852 117.38C288.852 116.687 288.83 115.907 288.787 115.04L284.822 114.455V111.92L297.627 107.565L298.797 108.28L299.382 115.95C300.292 113.177 301.57 111.097 303.217 109.71C304.864 108.28 306.489 107.565 308.092 107.565C309.522 107.565 310.757 107.977 311.797 108.8C312.837 109.58 313.487 110.772 313.747 112.375C313.704 114.065 313.249 115.387 312.382 116.34C311.515 117.25 310.432 117.705 309.132 117.705C307.312 117.705 305.644 116.687 304.127 114.65L303.737 114.13C302.784 115.04 301.895 116.188 301.072 117.575C300.292 118.962 299.729 120.413 299.382 121.93V126.35C299.382 127.693 299.382 129.232 299.382 130.965C299.382 132.698 299.404 134.323 299.447 135.84L304.582 136.945V140H285.342ZM338.567 141.235C334.407 141.235 330.615 140.412 327.192 138.765C323.768 137.075 321.038 134.562 319.002 131.225C317.008 127.888 316.012 123.685 316.012 118.615C316.012 114.758 316.618 111.422 317.832 108.605C319.088 105.788 320.778 103.448 322.902 101.585C325.068 99.7217 327.538 98.335 330.312 97.425C333.085 96.515 335.988 96.06 339.022 96.06C341.492 96.06 343.745 96.3417 345.782 96.905C347.818 97.425 349.812 98.2267 351.762 99.31L352.022 109.385H347.082L345.197 100.87C343.723 100.133 342.163 99.765 340.517 99.765C338.22 99.765 336.075 100.415 334.082 101.715C332.132 103.015 330.55 105.073 329.337 107.89C328.123 110.663 327.517 114.26 327.517 118.68C327.517 123.1 328.102 126.697 329.272 129.47C330.442 132.2 331.98 134.215 333.887 135.515C335.837 136.815 337.96 137.465 340.257 137.465C341.167 137.465 342.077 137.357 342.987 137.14C343.897 136.923 344.807 136.62 345.717 136.23L347.537 127.91H352.477L352.217 137.92C350.483 138.873 348.468 139.653 346.172 140.26C343.918 140.91 341.383 141.235 338.567 141.235ZM356.056 140V136.945L359.566 136.165C359.61 134.605 359.631 132.915 359.631 131.095C359.631 129.275 359.631 127.693 359.631 126.35V99.115L355.601 98.465V95.735L369.056 92.81L370.096 93.46L369.836 102.56V113.025C371.57 110.988 373.238 109.58 374.841 108.8C376.488 107.977 378.265 107.565 380.171 107.565C383.031 107.565 385.328 108.497 387.061 110.36C388.795 112.223 389.661 115.018 389.661 118.745V126.35C389.661 127.78 389.661 129.405 389.661 131.225C389.661 133.002 389.683 134.692 389.726 136.295L392.976 136.945V140H375.881V136.945L379.261 136.23C379.305 134.627 379.326 132.937 379.326 131.16C379.326 129.34 379.326 127.737 379.326 126.35V119.525C379.326 117.402 379.066 115.928 378.546 115.105C378.07 114.282 377.16 113.87 375.816 113.87C374.95 113.87 374.018 114.13 373.021 114.65C372.025 115.17 371.028 115.907 370.031 116.86V126.35C370.031 127.693 370.031 129.297 370.031 131.16C370.031 132.98 370.053 134.692 370.096 136.295L373.151 136.945V140H356.056ZM420.884 140.91C417.114 140.91 414.731 139.35 413.734 136.23C412.348 137.703 411.004 138.873 409.704 139.74C408.448 140.563 406.693 140.975 404.439 140.975C401.926 140.975 399.868 140.26 398.264 138.83C396.704 137.4 395.924 135.342 395.924 132.655C395.924 131.095 396.271 129.687 396.964 128.43C397.658 127.173 398.914 126.003 400.734 124.92C402.554 123.837 405.133 122.818 408.469 121.865C409.119 121.648 409.878 121.432 410.744 121.215C411.611 120.998 412.499 120.782 413.409 120.565V118.42C413.409 115.517 413.041 113.545 412.304 112.505C411.611 111.465 410.224 110.945 408.144 110.945C407.841 110.945 407.559 110.945 407.299 110.945C407.039 110.945 406.736 110.967 406.389 111.01L406.064 113.87C406.021 115.993 405.523 117.532 404.569 118.485C403.659 119.438 402.576 119.915 401.319 119.915C398.936 119.915 397.484 118.832 396.964 116.665C397.138 113.978 398.503 111.79 401.059 110.1C403.616 108.41 407.234 107.565 411.914 107.565C416.074 107.565 419.043 108.518 420.819 110.425C422.639 112.332 423.549 115.473 423.549 119.85V134.41C423.549 135.667 424.026 136.295 424.979 136.295C425.326 136.295 425.651 136.208 425.954 136.035C426.258 135.818 426.583 135.428 426.929 134.865L428.684 136.035C427.904 137.768 426.886 139.025 425.629 139.805C424.416 140.542 422.834 140.91 420.884 140.91ZM405.544 130.965C405.544 132.568 405.913 133.76 406.649 134.54C407.429 135.32 408.361 135.71 409.444 135.71C409.921 135.71 410.419 135.602 410.939 135.385C411.459 135.168 412.283 134.67 413.409 133.89V123.36C412.846 123.533 412.283 123.728 411.719 123.945C411.199 124.118 410.744 124.292 410.354 124.465C408.881 125.072 407.711 125.938 406.844 127.065C405.978 128.148 405.544 129.448 405.544 130.965ZM442.61 140.975C439.707 140.975 437.432 140.282 435.785 138.895C434.139 137.465 433.315 135.147 433.315 131.94C433.315 130.813 433.315 129.773 433.315 128.82C433.359 127.823 433.38 126.697 433.38 125.44V113.025H429.155V109.19L433.965 108.54L437.215 99.44H443.845L443.715 108.605H450.54V113.025H443.715V131.225C443.715 132.742 444.019 133.868 444.625 134.605C445.275 135.298 446.077 135.645 447.03 135.645C448.157 135.645 449.327 135.168 450.54 134.215L452.165 135.775C451.299 137.422 450.085 138.7 448.525 139.61C447.009 140.52 445.037 140.975 442.61 140.975Z" fill="white"/>
<path id="Jesus MH presents" d="M73.23 9.52V8.11H82.59V9.52L80.07 9.79C80.05 11.01 80.03 12.25 80.01 13.51C80.01 14.75 80.01 16 80.01 17.26V21.19C80.01 23.11 79.95 24.7 79.83 25.96C79.71 27.2 79.49 28.22 79.17 29.02C78.85 29.84 78.38 30.56 77.76 31.18C76.52 32.42 75 33.04 73.2 33.04C72.52 33.04 71.9 32.91 71.34 32.65C70.76 32.41 70.35 31.98 70.11 31.36C70.17 30.74 70.4 30.28 70.8 29.98C71.18 29.68 71.65 29.53 72.21 29.53C72.67 29.53 73.09 29.63 73.47 29.83C73.85 30.03 74.26 30.35 74.7 30.79L75.36 31.48C75.72 31.04 75.96 30.49 76.08 29.83C76.22 29.17 76.29 28.35 76.29 27.37C76.29 26.79 76.28 26.08 76.26 25.24C76.26 24.38 76.24 23.29 76.2 21.97C76.18 20.63 76.16 18.98 76.14 17.02C76.12 15.04 76.09 12.64 76.05 9.82L73.23 9.52ZM90.9713 14.65C90.4913 14.65 90.0113 14.81 89.5313 15.13C89.0713 15.43 88.6713 15.93 88.3313 16.63C88.0113 17.33 87.8113 18.28 87.7313 19.48H91.8413C92.5613 19.48 93.0413 19.33 93.2813 19.03C93.5213 18.73 93.6413 18.31 93.6413 17.77C93.6413 16.85 93.3813 16.1 92.8613 15.52C92.3413 14.94 91.7113 14.65 90.9713 14.65ZM90.9713 28.42C89.5713 28.42 88.3413 28.12 87.2813 27.52C86.2213 26.92 85.3913 26.06 84.7913 24.94C84.1913 23.8 83.8913 22.45 83.8913 20.89C83.8913 19.29 84.2313 17.92 84.9113 16.78C85.6113 15.62 86.5113 14.74 87.6113 14.14C88.7313 13.52 89.9213 13.21 91.1813 13.21C92.3613 13.21 93.3913 13.46 94.2713 13.96C95.1513 14.46 95.8313 15.16 96.3113 16.06C96.8113 16.96 97.0613 18.02 97.0613 19.24C97.0613 19.88 97.0013 20.43 96.8813 20.89H87.7013C87.7813 22.61 88.2313 23.9 89.0513 24.76C89.8913 25.62 90.9413 26.05 92.2013 26.05C93.0813 26.05 93.8213 25.88 94.4213 25.54C95.0413 25.18 95.6013 24.72 96.1013 24.16L96.9713 24.94C96.3913 26.04 95.5913 26.9 94.5713 27.52C93.5713 28.12 92.3713 28.42 90.9713 28.42ZM104.281 28.42C103.361 28.42 102.511 28.31 101.731 28.09C100.971 27.89 100.211 27.58 99.4507 27.16L99.4207 23.68H101.431L101.971 26.47C102.691 26.77 103.471 26.92 104.311 26.92C105.331 26.92 106.091 26.74 106.591 26.38C107.091 26.02 107.341 25.52 107.341 24.88C107.341 24.32 107.141 23.87 106.741 23.53C106.341 23.17 105.661 22.83 104.701 22.51L103.201 22C102.081 21.64 101.191 21.11 100.531 20.41C99.8907 19.71 99.5707 18.83 99.5707 17.77C99.5707 16.93 99.7907 16.17 100.231 15.49C100.671 14.79 101.311 14.24 102.151 13.84C103.011 13.42 104.051 13.21 105.271 13.21C106.131 13.21 106.911 13.32 107.611 13.54C108.331 13.74 109.041 14.04 109.741 14.44L109.591 17.59H107.611L107.071 15.07C106.511 14.83 105.891 14.71 105.211 14.71C104.411 14.71 103.791 14.88 103.351 15.22C102.911 15.56 102.691 16.02 102.691 16.6C102.691 17.14 102.871 17.58 103.231 17.92C103.611 18.24 104.311 18.57 105.331 18.91L106.531 19.27C107.991 19.77 109.031 20.39 109.651 21.13C110.271 21.87 110.581 22.76 110.581 23.8C110.581 25.14 110.031 26.25 108.931 27.13C107.851 27.99 106.301 28.42 104.281 28.42ZM123.344 28.27L123.104 25.63C121.644 27.49 119.944 28.42 118.004 28.42C116.764 28.42 115.764 28.02 115.004 27.22C114.264 26.4 113.904 25 113.924 23.02L114.044 15.61L112.094 15.19V14.02L117.344 13.39L117.704 13.72L117.554 17.92V22.9C117.554 24.02 117.724 24.81 118.064 25.27C118.424 25.71 118.934 25.93 119.594 25.93C120.154 25.93 120.724 25.77 121.304 25.45C121.904 25.13 122.474 24.72 123.014 24.22L123.104 15.61L121.214 15.19V14.08L126.344 13.39L126.734 13.72L126.644 17.92V26.38L128.474 26.77V28L123.344 28.27ZM135.453 28.42C134.533 28.42 133.683 28.31 132.903 28.09C132.143 27.89 131.383 27.58 130.623 27.16L130.593 23.68H132.603L133.143 26.47C133.863 26.77 134.643 26.92 135.483 26.92C136.503 26.92 137.263 26.74 137.763 26.38C138.263 26.02 138.513 25.52 138.513 24.88C138.513 24.32 138.313 23.87 137.913 23.53C137.513 23.17 136.833 22.83 135.873 22.51L134.373 22C133.253 21.64 132.363 21.11 131.703 20.41C131.063 19.71 130.743 18.83 130.743 17.77C130.743 16.93 130.963 16.17 131.403 15.49C131.843 14.79 132.483 14.24 133.323 13.84C134.183 13.42 135.223 13.21 136.443 13.21C137.303 13.21 138.083 13.32 138.783 13.54C139.503 13.74 140.213 14.04 140.913 14.44L140.763 17.59H138.783L138.243 15.07C137.683 14.83 137.063 14.71 136.383 14.71C135.583 14.71 134.963 14.88 134.523 15.22C134.083 15.56 133.863 16.02 133.863 16.6C133.863 17.14 134.043 17.58 134.403 17.92C134.783 18.24 135.483 18.57 136.503 18.91L137.703 19.27C139.163 19.77 140.203 20.39 140.823 21.13C141.443 21.87 141.753 22.76 141.753 23.8C141.753 25.14 141.203 26.25 140.103 27.13C139.023 27.99 137.473 28.42 135.453 28.42ZM150.302 28V26.59L153.092 26.2V9.85L150.422 9.52V8.11H157.112L162.962 23.02L168.482 8.11H175.172V9.52L172.712 9.79C172.692 11.03 172.672 12.29 172.652 13.57C172.652 14.83 172.652 16.11 172.652 17.41V18.7C172.652 19.98 172.652 21.26 172.652 22.54C172.672 23.8 172.692 25.06 172.712 26.32L175.232 26.59V28H166.382V26.59L168.752 26.29C168.792 25.05 168.812 23.82 168.812 22.6C168.812 21.36 168.812 20.17 168.812 19.03L168.842 11.89L162.902 28H160.982L154.682 11.89L154.832 17.77V26.2L157.322 26.59V28H150.302ZM189.644 9.52V8.11H198.584V9.52L196.094 9.79C196.074 11.03 196.054 12.29 196.034 13.57C196.034 14.83 196.034 16.11 196.034 17.41V18.7C196.034 19.96 196.034 21.23 196.034 22.51C196.054 23.77 196.074 25.04 196.094 26.32L198.584 26.59V28H189.644V26.59L192.074 26.32C192.114 25.06 192.134 23.78 192.134 22.48C192.134 21.18 192.134 19.88 192.134 18.58H184.004C184.004 20.02 184.004 21.37 184.004 22.63C184.024 23.89 184.044 25.12 184.064 26.32L186.524 26.59V28H177.584V26.59L180.074 26.32C180.114 25.08 180.134 23.82 180.134 22.54C180.134 21.26 180.134 19.98 180.134 18.7V17.41C180.134 16.15 180.134 14.89 180.134 13.63C180.134 12.35 180.114 11.07 180.074 9.79L177.584 9.52V8.11H186.524V9.52L184.064 9.79C184.044 11.03 184.024 12.27 184.004 13.51C184.004 14.75 184.004 15.92 184.004 17.02H192.134C192.134 15.78 192.134 14.56 192.134 13.36C192.134 12.16 192.114 10.97 192.074 9.79L189.644 9.52ZM207.433 34.99V33.76L209.473 33.37C209.493 32.49 209.503 31.64 209.503 30.82C209.523 30.02 209.533 29.24 209.533 28.48V20.11C209.533 19.29 209.523 18.64 209.503 18.16C209.503 17.66 209.483 17.11 209.443 16.51L207.343 16.24V15.1L212.323 13.21L212.803 13.51L212.953 15.34C214.313 13.92 215.813 13.21 217.453 13.21C218.533 13.21 219.513 13.51 220.393 14.11C221.273 14.69 221.963 15.54 222.463 16.66C222.983 17.78 223.243 19.14 223.243 20.74C223.243 22.32 222.953 23.69 222.373 24.85C221.813 25.99 221.063 26.87 220.123 27.49C219.183 28.11 218.133 28.42 216.973 28.42C216.233 28.42 215.543 28.28 214.903 28C214.263 27.72 213.653 27.27 213.073 26.65V28.45C213.073 29.19 213.073 29.96 213.073 30.76C213.093 31.58 213.113 32.43 213.133 33.31L215.473 33.76V34.99H207.433ZM216.043 15.34C215.583 15.34 215.113 15.46 214.633 15.7C214.173 15.94 213.683 16.26 213.163 16.66V25.15C214.003 25.93 214.893 26.32 215.833 26.32C216.833 26.32 217.673 25.89 218.353 25.03C219.053 24.15 219.403 22.78 219.403 20.92C219.403 19.08 219.093 17.69 218.473 16.75C217.853 15.81 217.043 15.34 216.043 15.34ZM225.394 28V26.77L227.314 26.41C227.334 25.65 227.344 24.84 227.344 23.98C227.344 23.1 227.344 22.34 227.344 21.7V20.11C227.344 19.29 227.334 18.64 227.314 18.16C227.314 17.66 227.294 17.11 227.254 16.51L225.154 16.24V15.1L230.164 13.21L230.644 13.51L230.944 17.05C231.404 15.81 232.024 14.86 232.804 14.2C233.584 13.54 234.364 13.21 235.144 13.21C235.684 13.21 236.174 13.35 236.614 13.63C237.074 13.91 237.374 14.31 237.514 14.83C237.494 15.57 237.314 16.15 236.974 16.57C236.634 16.97 236.164 17.17 235.564 17.17C234.844 17.17 234.164 16.81 233.524 16.09L233.254 15.79C232.194 16.67 231.434 17.91 230.974 19.51V21.7C230.974 22.32 230.974 23.06 230.974 23.92C230.974 24.76 230.984 25.55 231.004 26.29L233.464 26.77V28H225.394ZM245.424 14.65C244.944 14.65 244.464 14.81 243.984 15.13C243.524 15.43 243.124 15.93 242.784 16.63C242.464 17.33 242.264 18.28 242.184 19.48H246.294C247.014 19.48 247.494 19.33 247.734 19.03C247.974 18.73 248.094 18.31 248.094 17.77C248.094 16.85 247.834 16.1 247.314 15.52C246.794 14.94 246.164 14.65 245.424 14.65ZM245.424 28.42C244.024 28.42 242.794 28.12 241.734 27.52C240.674 26.92 239.844 26.06 239.244 24.94C238.644 23.8 238.344 22.45 238.344 20.89C238.344 19.29 238.684 17.92 239.364 16.78C240.064 15.62 240.964 14.74 242.064 14.14C243.184 13.52 244.374 13.21 245.634 13.21C246.814 13.21 247.844 13.46 248.724 13.96C249.604 14.46 250.284 15.16 250.764 16.06C251.264 16.96 251.514 18.02 251.514 19.24C251.514 19.88 251.454 20.43 251.334 20.89H242.154C242.234 22.61 242.684 23.9 243.504 24.76C244.344 25.62 245.394 26.05 246.654 26.05C247.534 26.05 248.274 25.88 248.874 25.54C249.494 25.18 250.054 24.72 250.554 24.16L251.424 24.94C250.844 26.04 250.044 26.9 249.024 27.52C248.024 28.12 246.824 28.42 245.424 28.42ZM258.734 28.42C257.814 28.42 256.964 28.31 256.184 28.09C255.424 27.89 254.664 27.58 253.904 27.16L253.874 23.68H255.884L256.424 26.47C257.144 26.77 257.924 26.92 258.764 26.92C259.784 26.92 260.544 26.74 261.044 26.38C261.544 26.02 261.794 25.52 261.794 24.88C261.794 24.32 261.594 23.87 261.194 23.53C260.794 23.17 260.114 22.83 259.154 22.51L257.654 22C256.534 21.64 255.644 21.11 254.984 20.41C254.344 19.71 254.024 18.83 254.024 17.77C254.024 16.93 254.244 16.17 254.684 15.49C255.124 14.79 255.764 14.24 256.604 13.84C257.464 13.42 258.504 13.21 259.724 13.21C260.584 13.21 261.364 13.32 262.064 13.54C262.784 13.74 263.494 14.04 264.194 14.44L264.044 17.59H262.064L261.524 15.07C260.964 14.83 260.344 14.71 259.664 14.71C258.864 14.71 258.244 14.88 257.804 15.22C257.364 15.56 257.144 16.02 257.144 16.6C257.144 17.14 257.324 17.58 257.684 17.92C258.064 18.24 258.764 18.57 259.784 18.91L260.984 19.27C262.444 19.77 263.484 20.39 264.104 21.13C264.724 21.87 265.034 22.76 265.034 23.8C265.034 25.14 264.484 26.25 263.384 27.13C262.304 27.99 260.754 28.42 258.734 28.42ZM274.194 14.65C273.714 14.65 273.234 14.81 272.754 15.13C272.294 15.43 271.894 15.93 271.554 16.63C271.234 17.33 271.034 18.28 270.954 19.48H275.064C275.784 19.48 276.264 19.33 276.504 19.03C276.744 18.73 276.864 18.31 276.864 17.77C276.864 16.85 276.604 16.1 276.084 15.52C275.564 14.94 274.934 14.65 274.194 14.65ZM274.194 28.42C272.794 28.42 271.564 28.12 270.504 27.52C269.444 26.92 268.614 26.06 268.014 24.94C267.414 23.8 267.114 22.45 267.114 20.89C267.114 19.29 267.454 17.92 268.134 16.78C268.834 15.62 269.734 14.74 270.834 14.14C271.954 13.52 273.144 13.21 274.404 13.21C275.584 13.21 276.614 13.46 277.494 13.96C278.374 14.46 279.054 15.16 279.534 16.06C280.034 16.96 280.284 18.02 280.284 19.24C280.284 19.88 280.224 20.43 280.104 20.89H270.924C271.004 22.61 271.454 23.9 272.274 24.76C273.114 25.62 274.164 26.05 275.424 26.05C276.304 26.05 277.044 25.88 277.644 25.54C278.264 25.18 278.824 24.72 279.324 24.16L280.194 24.94C279.614 26.04 278.814 26.9 277.794 27.52C276.794 28.12 275.594 28.42 274.194 28.42ZM282.463 28V26.77L284.413 26.38C284.433 25.64 284.443 24.84 284.443 23.98C284.443 23.1 284.443 22.34 284.443 21.7V20.11C284.443 19.29 284.433 18.64 284.413 18.16C284.413 17.66 284.393 17.11 284.353 16.51L282.253 16.24V15.1L287.263 13.21L287.743 13.51L287.953 15.82C289.493 14.08 291.193 13.21 293.053 13.21C294.353 13.21 295.353 13.64 296.053 14.5C296.773 15.36 297.133 16.72 297.133 18.58V21.7C297.133 22.38 297.133 23.15 297.133 24.01C297.133 24.87 297.143 25.67 297.163 26.41L298.993 26.77V28H291.583V26.77L293.503 26.38C293.523 25.64 293.533 24.85 293.533 24.01C293.533 23.15 293.533 22.38 293.533 21.7V18.85C293.533 17.67 293.373 16.86 293.053 16.42C292.733 15.96 292.193 15.73 291.433 15.73C290.373 15.73 289.253 16.22 288.073 17.2V21.7C288.073 22.36 288.073 23.12 288.073 23.98C288.073 24.84 288.083 25.65 288.103 26.41L289.873 26.77V28H282.463ZM305.967 28.42C304.767 28.42 303.827 28.12 303.147 27.52C302.467 26.92 302.127 25.96 302.127 24.64C302.127 24.18 302.127 23.75 302.127 23.35C302.147 22.93 302.157 22.43 302.157 21.85V15.46H299.937V13.9L302.367 13.6L303.507 9.49H305.937L305.817 13.63H309.417V15.46H305.787V24.31C305.787 25.05 305.927 25.59 306.207 25.93C306.507 26.27 306.897 26.44 307.377 26.44C307.917 26.44 308.527 26.19 309.207 25.69L309.927 26.44C309.547 27.06 309.027 27.55 308.367 27.91C307.707 28.25 306.907 28.42 305.967 28.42ZM316.039 28.42C315.119 28.42 314.269 28.31 313.489 28.09C312.729 27.89 311.969 27.58 311.209 27.16L311.179 23.68H313.189L313.729 26.47C314.449 26.77 315.229 26.92 316.069 26.92C317.089 26.92 317.849 26.74 318.349 26.38C318.849 26.02 319.099 25.52 319.099 24.88C319.099 24.32 318.899 23.87 318.499 23.53C318.099 23.17 317.419 22.83 316.459 22.51L314.959 22C313.839 21.64 312.949 21.11 312.289 20.41C311.649 19.71 311.329 18.83 311.329 17.77C311.329 16.93 311.549 16.17 311.989 15.49C312.429 14.79 313.069 14.24 313.909 13.84C314.769 13.42 315.809 13.21 317.029 13.21C317.889 13.21 318.669 13.32 319.369 13.54C320.089 13.74 320.799 14.04 321.499 14.44L321.349 17.59H319.369L318.829 15.07C318.269 14.83 317.649 14.71 316.969 14.71C316.169 14.71 315.549 14.88 315.109 15.22C314.669 15.56 314.449 16.02 314.449 16.6C314.449 17.14 314.629 17.58 314.989 17.92C315.369 18.24 316.069 18.57 317.089 18.91L318.289 19.27C319.749 19.77 320.789 20.39 321.409 21.13C322.029 21.87 322.339 22.76 322.339 23.8C322.339 25.14 321.789 26.25 320.689 27.13C319.609 27.99 318.059 28.42 316.039 28.42Z" fill="black"/>
</g>
</svg>
